<?xml version="1.0" standalone="no"?>
<!DOCTYPE svg PUBLIC "-//W3C//DTD SVG 20010904//EN"
 "http://www.w3.org/TR/2001/REC-SVG-20010904/DTD/svg10.dtd">
<svg version="1.0" xmlns="http://www.w3.org/2000/svg"
 width="700.000000pt" height="700.000000pt" viewBox="0 0 700.000000 700.000000"
 preserveAspectRatio="xMidYMid meet">
<metadata>
Created by potrace 1.14, written by Peter Selinger 2001-2017
</metadata>
<g transform="translate(0.000000,700.000000) scale(0.100000,-0.100000)"
fill="#000000" stroke="none">
<path d="M1390 6989 c-25 -5 -54 -12 -65 -17 -70 -30 -125 -60 -161 -89 -92
-72 -1038 -1030 -1076 -1088 -21 -32 -49 -91 -61 -130 l-22 -70 0 -2570 0
-2570 28 -75 c55 -150 161 -267 297 -328 56 -24 64 -27 135 -42 22 -5 1001 -9
2175 -9 2347 -1 2203 -5 2337 61 90 44 199 151 243 238 65 129 67 143 68 684
1 269 3 490 5 492 3 3 111 -70 222 -152 81 -58 156 -111 227 -161 46 -31 85
-60 88 -63 11 -13 97 -68 147 -94 50 -25 121 -52 167 -63 44 -10 233 -12 286
-2 125 24 275 105 368 200 277 282 263 746 -29 1014 -24 22 -170 130 -324 239
-154 110 -282 203 -285 206 -3 4 -10 9 -15 11 -6 2 -111 76 -233 164 -123 88
-231 165 -240 170 -9 6 -19 13 -22 16 -3 3 -40 30 -82 59 -43 29 -82 58 -87
64 -5 6 1 58 15 126 13 63 27 147 32 185 9 89 9 371 -1 450 -30 239 -98 469
-200 670 l-41 80 -2 955 c-1 985 -1 990 -42 1098 -62 161 -240 309 -412 341
-69 13 -3374 13 -3440 0z m3371 -5126 c13 -16 12 -17 -3 -4 -17 13 -22 21 -14
21 2 0 10 -8 17 -17z m40 -30 c13 -16 12 -17 -3 -4 -17 13 -22 21 -14 21 2 0
10 -8 17 -17z"/>
</g>
</svg>
